<?xml version="1.0" encoding="utf-8"?>
<!-- Generator: Adobe Illustrator 16.0.0, SVG Export Plug-In . SVG Version: 6.00 Build 0)  -->
<!DOCTYPE svg PUBLIC "-//W3C//DTD SVG 1.1//EN" "http://www.w3.org/Graphics/SVG/1.1/DTD/svg11.dtd">
<svg version="1.1" id="Layer_1" xmlns="http://www.w3.org/2000/svg" xmlns:xlink="http://www.w3.org/1999/xlink" x="0px" y="0px"
	 viewBox="11.5 0 275 158.5" enable-background="new 11.5 0 275 158.5" xml:space="preserve">
<g>
	<path d="M132.361,21.789c16.77-3.73,34.729-2.22,50.529,4.59c18.74,7.95,34.271,23.16,42.59,41.75
		c4.92,10.55,7.15,22.19,7.38,33.79c-11.579-0.02-23.148,0.439-34.729,0.26c0.06-17.06-9.75-33.54-24.67-41.759
		c3.68-6.79,7.29-13.62,10.95-20.42c-12.932-7.45-28.21-10.78-43.05-8.9c-16.57,1.99-32.311,10.25-43.291,22.84
		c-11.51,13.05-17.88,30.57-17.02,47.99c-4.27,0-8.53,0-12.8,0c0.04-18.359,6.29-36.68,17.8-51.02
		C97.54,36.279,114.21,25.829,132.361,21.789L132.361,21.789z"/>
	<path d="M140.48,33.819c13.83-2.03,28.2,0.66,40.521,7.21c-4.432,8.22-8.82,16.46-13.23,24.69c-7.979-4.32-17.41-5.58-26.29-3.79
		c-1.539-5.26-3.189-10.49-4.74-15.74c-14.779,3.85-27.779,14.07-34.699,27.73c-4.51,8.57-6.49,18.36-6,28.009
		c-4.16-0.01-8.33,0-12.5,0c-0.57-14.859,3.96-29.85,12.8-41.81C106.66,45.819,123.04,36.189,140.48,33.819L140.48,33.819z"/>
	<path d="M109.46,66.409c6.47-8.39,15.73-14.36,25.77-17.54c2.18,7,4.19,14.06,6.43,21.05c-7.01,2.41-13.409,6.97-17.14,13.479
		c-3.5,5.58-4.63,12.28-4.229,18.78c-7.33,0-14.66,0-21.99,0C97.5,89.419,101.42,76.389,109.46,66.409L109.46,66.409z"/>
	<path d="M18.8,107.929c3.07,0,6.13,0,9.2,0c2.97,8.802,6.22,17.5,9.16,26.302c3.06-8.781,6.23-17.521,9.36-26.281
		c3.01-0.021,6.02-0.021,9.02-0.01c0.01,11.659,0.01,23.319,0.01,34.989c-2.25,0-4.5,0-6.75,0c0-8.438,0.01-16.879-0.01-25.319
		c-3.02,8.399-5.69,16.932-8.74,25.33c-1.89-0.011-3.79-0.011-5.68,0c-2.94-8.229-5.7-16.529-8.58-24.779
		c0.01,8.26,0.01,16.51,0.01,24.77c-2.34,0-4.66,0-6.99,0C18.8,131.269,18.81,119.599,18.8,107.929L18.8,107.929z"/>
	<path d="M57.81,107.938c2.16-0.011,4.33-0.011,6.49-0.011c0,2,0,4-0.01,6.011c-2.16-0.011-4.33-0.011-6.49-0.021
		C57.8,111.919,57.8,109.929,57.81,107.938L57.81,107.938z"/>
	<path d="M86.55,107.929c2.17,0,4.33,0,6.5,0.011c0,11.659,0,23.319,0,34.989c-2.01,0-4.02,0-6.03,0c0.03-0.75,0.1-2.239,0.13-2.979
		c-4.17,4.66-11.93,5.352-16.61,1.069c-6.36-5.17-6.82-15.858-0.8-21.469c4.31-4.649,12.11-4.899,16.86-0.76
		C86.52,115.169,86.55,111.55,86.55,107.929L86.55,107.929z"/>
	<path d="M115.3,107.929c2.17,0,4.33,0,6.5,0c0,11.66,0,23.33,0,35c-2.01,0-4.03,0-6.03-0.01c0.03-0.729,0.101-2.188,0.14-2.92
		c-3.619,3.689-9.489,5.189-14.169,2.67c-8.19-4.029-10.22-16.221-3.71-22.641c4.18-5.109,12.41-5.539,17.299-1.209
		C115.29,115.188,115.3,111.56,115.3,107.929L115.3,107.929z"/>
	<path d="M124.8,107.929c2.17,0,4.33,0,6.5,0c0,11.67,0.01,23.34,0,35c-2.17,0-4.33,0-6.5,0
		C124.8,131.259,124.8,119.599,124.8,107.929L124.8,107.929z"/>
	<path d="M161.8,108.179c0.88,0,2.62,0,3.5,0c0,5.08,0,10.17,0,15.25c5.83,0,11.66,0,17.5,0c0-5.08,0-10.17,0-15.25
		c0.88,0,2.63,0,3.5,0c0,11.59,0,23.17,0,34.761c-1.17-0.011-2.34-0.021-3.5-0.021c0-5.33,0-10.66,0-15.99c-5.84,0-11.67,0-17.5,0
		c0,5.33,0,10.67,0,16.011c-1.17-0.011-2.34-0.021-3.5-0.021C161.8,131.339,161.8,119.759,161.8,108.179L161.8,108.179z"/>
	<path d="M137.829,119.759c5.121-5.219,14.461-4.85,19.271,0.611c3.08,3.26,4.03,7.949,3.431,12.299
		c-6.811,0.051-13.621-0.07-20.431,0.07c2.07,5.119,8.91,6.108,12.79,2.471c2.34-0.041,4.68-0.041,7.021,0.021
		c-3.03,7.84-13.851,11.129-20.601,6C132.26,136.579,131.54,125.349,137.829,119.759L137.829,119.759z"/>
	<path d="M196.81,116.909c7.75-2.43,16.721,4,16.721,12.16c0.851,7.448-5.739,14.698-13.261,14.399
		c-7.46,0.229-13.79-6.93-13.17-14.26C187.39,123.64,191.37,118.37,196.81,116.909L196.81,116.909z"/>
	<path d="M244.06,116.919c4.58-1.938,9.892,1.801,10.03,6.689c-0.9,0.021-2.7,0.041-3.601,0.061c-0.319-4.17-6.989-4.879-7.46-0.529
		c-0.29,4.49,5.359,4.25,8.159,6.05c5.32,2.961,4.24,11.61-1.33,13.659c-5.34,2.681-11.778-1.858-11.778-7.649
		c1.21-0.01,2.43-0.021,3.66-0.021c0.6,2.441,2.42,5.312,5.34,4.73c3.01-0.18,4.7-3.869,3.18-6.369
		c-2.45-3.182-7.55-2.211-9.8-5.641C237.77,124.179,239.489,118.188,244.06,116.919L244.06,116.919z"/>
	<path d="M257.229,123.319c3.48-6.779,13.19-9.181,19.271-4.439c4.16,2.729,5.99,7.709,5.938,12.539
		c-7.77,0.041-15.55-0.049-23.318,0.051c1,3.5,3.188,6.92,6.898,7.931c4.66,1.77,9.761-0.939,11.91-5.201
		c1.29-0.01,2.58,0,3.88,0.012c-2.21,6.56-9.56,10.939-16.34,8.889C257.28,141.079,252.78,130.589,257.229,123.319L257.229,123.319z
		"/>
	<path d="M57.8,116.679c2.17,0,4.33,0,6.5,0c0.01,8.75,0,17.5,0,26.261c-2.17-0.011-4.34-0.011-6.5-0.021
		C57.81,134.179,57.8,125.429,57.8,116.679L57.8,116.679z"/>
	<path d="M214.3,117.179c1.25,0,2.5,0,3.75,0c0.03,5.031-0.07,10.052,0.02,15.07c-0.17,4.57,4.562,8.449,9.012,7.529
		c2.89-0.459,5.76-2.539,6.12-5.619c0.26-5.65,0.02-11.32,0.1-16.98c1.25,0,2.5,0,3.75,0.011c0,8.579,0,17.159,0,25.739
		c-0.81,0-2.44,0-3.25,0c0.01-0.819,0.03-2.469,0.04-3.299c-4.87,6.539-16.17,4.49-18.7-3.17
		C213.35,130.22,214.71,123.579,214.3,117.179L214.3,117.179z"/>
	<path fill="#FFFFFF" d="M196.819,120.839c6.11-2.879,13.57,2.781,13.03,9.351c0.36,7.182-8.77,12.62-14.67,8.102
		C188.72,134.319,189.67,123.489,196.819,120.839L196.819,120.839z"/>
	<path fill="#FFFFFF" d="M259.1,127.89c1.312-4.43,5.352-8.121,10.17-7.739c4.58-0.08,8.2,3.539,9.41,7.739
		C272.149,127.96,265.62,127.96,259.1,127.89L259.1,127.89z"/>
	<path fill="#FFFFFF" d="M76.69,122.579c3.96-1.57,8.87,0.979,10,5.061c1.51,4.31-1.86,9.279-6.3,9.879
		c-4.65,0.73-9.01-3.77-8.56-8.35C72.14,126.319,74.11,123.778,76.69,122.579L76.69,122.579z"/>
	<path fill="#FFFFFF" d="M106.57,122.229c6.08-1.371,11.66,6.069,8.14,11.42c-2.45,4.721-9.73,5.278-12.64,0.739
		C98.63,130.21,101.36,123.3,106.57,122.229L106.57,122.229z"/>
	<path fill="#FFFFFF" d="M139.97,127.12c1.63-2.951,4.811-5.41,8.35-4.75c2.73,0.389,4.711,2.449,6.051,4.709
		C149.57,127.249,144.77,127.198,139.97,127.12L139.97,127.12z"/>
</g>
</svg>
